<?xml version="1.0" encoding="UTF-8"?>
<svg width="1200" height="933.33" version="1.1" viewBox="0 0 1200 933.33" xml:space="preserve" xmlns="http://www.w3.org/2000/svg" xmlns:cc="http://creativecommons.org/ns#" xmlns:dc="http://purl.org/dc/elements/1.1/" xmlns:rdf="http://www.w3.org/1999/02/22-rdf-syntax-ns#"><metadata><rdf:RDF><cc:Work rdf:about=""><dc:format>image/svg+xml</dc:format><dc:type rdf:resource="http://purl.org/dc/dcmitype/StillImage"/><dc:title/></cc:Work></rdf:RDF></metadata><defs><clipPath id="clipPath1118"><path d="m0 0h900v700h-900z"/></clipPath><linearGradient id="linearGradient1132" x2="1" gradientTransform="matrix(421.37 0 0 421.37 -210.68 714.12)" gradientUnits="userSpaceOnUse"><stop stop-color="#e05e67" offset="0"/><stop stop-color="#942d3b" offset=".20091"/><stop stop-color="#942d3b" offset="1"/></linearGradient><clipPath id="clipPath1150"><path d="m0 0h900v700h-900z"/></clipPath></defs><g transform="matrix(1.3333 0 0 -1.3333 0 933.33)"><g transform="translate(229.4 572.74)"><path d="m0 0 441.2-437.37" fill="none" stroke="#a3333d" stroke-width=".25"/></g><g transform="translate(232.35 132.35)"><path d="m0 0 439.29 439.29" fill="none" stroke="#a3333d" stroke-width=".25"/></g><g clip-path="url(#clipPath1118)"><g transform="translate(450 153.44)"><path d="m0 0c108.56 0 196.56 88.003 196.56 196.56 0 108.56-88.003 196.56-196.56 196.56s-196.56-88.003-196.56-196.56c0-108.56 88.003-196.56 196.56-196.56" fill="#fafaf3"/></g><g transform="translate(450 153.44)"><path d="m0 0c108.56 0 196.56 88.003 196.56 196.56 0 108.56-88.003 196.56-196.56 196.56s-196.56-88.003-196.56-196.56c0-108.56 88.003-196.56 196.56-196.56z" fill="none" stroke="url(#linearGradient1132)" stroke-width="28.25"/></g><g transform="translate(450,44.5)"><path d="m0 0c170.93 0 309.5 138.57 309.5 309.5s-138.57 309.5-309.5 309.5-309.5-138.57-309.5-309.5 138.57-309.5 309.5-309.5z" fill="none" stroke="#a3333d"/></g></g><g transform="translate(421.75 377.76)"><path d="M 0,0 -121.11,-176.845 56.5,-57.065 177.61,121.675 0,0.565" fill="#a3333d"/></g><g clip-path="url(#clipPath1150)"><g transform="translate(508.76 350.18)"><path d="m0 0c0 32.452-26.308 58.76-58.76 58.76s-58.76-26.308-58.76-58.76 26.308-58.76 58.76-58.76 58.76 26.308 58.76 58.76m-58.853-16.689s-23.411 17.289-19.168 25.89c8.281 16.782 19.261-9.201 19.261-9.201s10.877 26.394 19.186 9.312c4.603-9.464-19.279-26.001-19.279-26.001" fill="#a3333d"/></g><g transform="translate(508.76 350.18)"><path d="m0 0c0 32.452-26.308 58.76-58.76 58.76s-58.76-26.308-58.76-58.76 26.308-58.76 58.76-58.76 58.76 26.308 58.76 58.76zm-58.853-16.689s-23.411 17.289-19.168 25.89c8.281 16.782 19.261-9.201 19.261-9.201s10.877 26.394 19.186 9.312c4.603-9.464-19.279-26.001-19.279-26.001z" fill="none" stroke="#fff" stroke-width="19.775"/></g><g transform="translate(599.16 499.44)"><path d="m0 0-126-84.95s32.661-12.847 41.245-40.115z" fill="#ef6f6c"/></g><g transform="translate(450 285.68)"><path d="m0 0c35.623 0 64.502 28.878 64.502 64.502 0 35.623-28.879 64.501-64.502 64.501s-64.502-28.878-64.502-64.501c0-35.624 28.879-64.502 64.502-64.502z" fill="none" stroke="#ef6f6c" stroke-width="9.04"/></g></g></g></svg>
