<?xml version="1.0" encoding="UTF-8"?>
<svg width="950.67" height="950.67" version="1.1" viewBox="0 0 950.67 950.67" xml:space="preserve" xmlns="http://www.w3.org/2000/svg" xmlns:cc="http://creativecommons.org/ns#" xmlns:dc="http://purl.org/dc/elements/1.1/" xmlns:rdf="http://www.w3.org/1999/02/22-rdf-syntax-ns#"><metadata><rdf:RDF><cc:Work rdf:about=""><dc:format>image/svg+xml</dc:format><dc:type rdf:resource="http://purl.org/dc/dcmitype/StillImage"/><dc:title/></cc:Work></rdf:RDF></metadata><defs><clipPath id="clipPath1625"><path d="m0 0h713v713h-713z"/></clipPath></defs><g transform="matrix(1.3333 0 0 -1.3333 0 950.67)"><g transform="translate(324.4 388.05)"><path d="m0 0-137.62-200.96 201.83 136.11 137.62 203.11-201.83-137.62" fill="#a3333d"/></g><g clip-path="url(#clipPath1625)"><g transform="translate(423.27 356.7)"><path d="m0 0c0 36.878-29.895 66.773-66.773 66.773-36.877 0-66.772-29.895-66.772-66.773 0-36.877 29.895-66.773 66.772-66.773 36.878 0 66.773 29.896 66.773 66.773m-66.878-18.965s-26.604 19.647-21.782 29.42c9.41 19.071 21.887-10.455 21.887-10.455s12.361 29.993 21.802 10.582c5.231-10.755-21.907-29.547-21.907-29.547" fill="#a3333d"/></g><g transform="translate(423.27 356.7)"><path d="m0 0c0 36.878-29.895 66.773-66.773 66.773-36.877 0-66.772-29.895-66.772-66.773 0-36.877 29.895-66.773 66.772-66.773 36.878 0 66.773 29.896 66.773 66.773zm-66.878-18.965s-26.604 19.647-21.782 29.42c9.41 19.071 21.887-10.455 21.887-10.455s12.361 29.993 21.802 10.582c5.231-10.755-21.907-29.547-21.907-29.547z" fill="none" stroke="#fff" stroke-width="22.472"/></g><g transform="translate(526 526.31)"><path d="m0 0-143.18-96.534s37.115-14.599 46.869-45.585z" fill="#ef6f6c"/></g><g transform="translate(356.5 283.4)"><path d="m0 0c40.481 0 73.297 32.816 73.297 73.297s-32.816 73.297-73.297 73.297-73.297-32.816-73.297-73.297 32.816-73.297 73.297-73.297z" fill="none" stroke="#ef6f6c" stroke-width="10.273"/></g></g></g></svg>
