<?xml version="1.0" encoding="UTF-8"?>
<svg width="950.67" height="950.67" version="1.1" viewBox="0 0 950.67 950.67" xml:space="preserve" xmlns="http://www.w3.org/2000/svg" xmlns:cc="http://creativecommons.org/ns#" xmlns:dc="http://purl.org/dc/elements/1.1/" xmlns:rdf="http://www.w3.org/1999/02/22-rdf-syntax-ns#"><metadata><rdf:RDF><cc:Work rdf:about=""><dc:format>image/svg+xml</dc:format><dc:type rdf:resource="http://purl.org/dc/dcmitype/StillImage"/><dc:title/></cc:Work></rdf:RDF></metadata><defs><clipPath id="clipPath984"><path d="m0 0h713v713h-713z"/></clipPath><clipPath id="clipPath1004"><path d="m0 0h713v713h-713z"/></clipPath><linearGradient id="linearGradient1018" x2="1" gradientTransform="matrix(468.59 0 0 468.59 -234.29 723.93)" gradientUnits="userSpaceOnUse"><stop stop-color="#e05e67" offset="0"/><stop stop-color="#942d3b" offset=".20091"/><stop stop-color="#942d3b" offset="1"/></linearGradient></defs><g transform="matrix(1.3333 0 0 -1.3333 0 950.67)"><g clip-path="url(#clipPath984)"><g transform="translate(356.5,36)"><path d="m0 0c176.73 0 320 143.27 320 320s-143.27 320-320 320-320-143.27-320-320 143.27-320 320-320z" fill="none" stroke="#a3333d"/></g></g><g transform="translate(356.5,677)"><path d="m0 0v-641" fill="none" stroke="#a3333d" stroke-width=".5"/></g><g transform="translate(677,362)"><path d="m0 0h-641" fill="none" stroke="#a3333d" stroke-width=".5"/></g><g clip-path="url(#clipPath1004)"><g transform="translate(356.5 133.14)"><path d="m0 0c123.36 0 223.36 100 223.36 223.36 0 123.36-100 223.36-223.36 223.36s-223.36-100-223.36-223.36c0-123.36 100-223.36 223.36-223.36" fill="#fafaf3"/></g><g transform="translate(356.5 133.14)"><path d="m0 0c123.36 0 223.36 100 223.36 223.36 0 123.36-100 223.36-223.36 223.36s-223.36-100-223.36-223.36c0-123.36 100-223.36 223.36-223.36z" fill="none" stroke="url(#linearGradient1018)" stroke-width="32.102"/></g></g></g></svg>
