<?xml version="1.0" encoding="UTF-8"?>
<svg width="950.67" height="933.33" version="1.1" viewBox="0 0 950.67 933.33" xml:space="preserve" xmlns="http://www.w3.org/2000/svg" xmlns:cc="http://creativecommons.org/ns#" xmlns:dc="http://purl.org/dc/elements/1.1/" xmlns:rdf="http://www.w3.org/1999/02/22-rdf-syntax-ns#"><metadata><rdf:RDF><cc:Work rdf:about=""><dc:format>image/svg+xml</dc:format><dc:type rdf:resource="http://purl.org/dc/dcmitype/StillImage"/><dc:title/></cc:Work></rdf:RDF></metadata><defs><clipPath id="clipPath849"><path d="m0 0h713v700h-713z"/></clipPath><linearGradient id="linearGradient863" x2="1" gradientTransform="matrix(655.95 0 0 655.95 -327.97 708.88)" gradientUnits="userSpaceOnUse"><stop stop-color="#e05e67" offset="0"/><stop stop-color="#942d3b" offset=".20091"/><stop stop-color="#942d3b" offset="1"/></linearGradient><clipPath id="clipPath877"><path d="m0 0h713v700h-713z"/></clipPath></defs><g transform="matrix(1.3333 0 0 -1.3333 0 933.33)"><g clip-path="url(#clipPath849)"><g transform="translate(356.5 30.909)"><path d="m0 0c176.23 0 319.09 142.86 319.09 319.09s-142.86 319.09-319.09 319.09-319.09-142.86-319.09-319.09 142.86-319.09 319.09-319.09" fill="#fafaf3"/></g><g transform="translate(356.5 30.909)"><path d="m0 0c176.23 0 319.09 142.86 319.09 319.09s-142.86 319.09-319.09 319.09-319.09-142.86-319.09-319.09 142.86-319.09 319.09-319.09z" fill="none" stroke="url(#linearGradient863)" stroke-width="45.86"/></g></g><g transform="translate(310.64 395.07)"><path d="m0 0-196.61-287.09 288.33 194.45 196.61 290.16-288.33-196.61" fill="#a3333d"/></g><g clip-path="url(#clipPath877)"><g transform="translate(451.89 350.29)"><path d="m0 0c0 52.682-42.707 95.389-95.39 95.389-52.682 0-95.389-42.707-95.389-95.389s42.707-95.389 95.389-95.389c52.683 0 95.39 42.707 95.39 95.389m-95.541-27.092s-38.005 28.066-31.116 42.028c13.443 27.244 31.267-14.935 31.267-14.935s17.659 42.846 31.146 15.115c7.473-15.363-31.297-42.208-31.297-42.208" fill="#a3333d"/></g><g transform="translate(451.89 350.29)"><path d="m0 0c0 52.682-42.707 95.389-95.39 95.389-52.682 0-95.389-42.707-95.389-95.389s42.707-95.389 95.389-95.389c52.683 0 95.39 42.707 95.39 95.389zm-95.541-27.092s-38.005 28.066-31.116 42.028c13.443 27.244 31.267-14.935 31.267-14.935s17.659 42.846 31.146 15.115c7.473-15.363-31.297-42.208-31.297-42.208z" fill="none" stroke="#fff" stroke-width="32.102"/></g><g transform="translate(598.64 592.59)"><path d="m0 0-204.54-137.9s53.021-20.857 66.956-65.122z" fill="#ef6f6c"/></g><g transform="translate(356.5 245.58)"><path d="m0 0c57.83 0 104.71 46.88 104.71 104.71s-46.88 104.71-104.71 104.71-104.71-46.88-104.71-104.71 46.88-104.71 104.71-104.71z" fill="none" stroke="#ef6f6c" stroke-width="14.675"/></g></g></g></svg>
